<svg width="127" height="39" viewBox="0 0 127 39" fill="none" xmlns="http://www.w3.org/2000/svg">
<path d="M24.8619 22.9664C24.8619 28.117 24.8619 33.2034 24.8619 38.3273C19.3119 38.3273 13.7922 38.3273 8.21428 38.3273C8.21428 31.147 8.21428 23.9533 8.21428 16.6887C5.45224 16.6887 2.74655 16.6887 0 16.6887C0 11.2821 0 5.94618 0 0.564798C10.9763 0.564798 21.9755 0.564798 33.014 0.564798C33.014 1.82769 33.014 3.08261 33.014 4.5146C37.4518 0.933276 42.4562 -0.375485 47.9804 0.0907524C53.5786 0.563239 58.0923 3.06201 61.7477 7.41776C61.7477 5.04339 61.7477 2.83031 61.7477 0.554733C61.968 0.541485 62.1512 0.520896 62.3344 0.520839C67.8204 0.519129 73.3067 0.487101 78.7924 0.531494C82.1222 0.558441 85.3311 1.19258 88.0969 3.15558C91.612 5.65036 93.481 9.12227 93.9366 13.3541C94.2887 16.624 93.8203 19.756 92.1217 22.6241C89.8994 26.3765 86.4739 28.3898 82.2224 29.1175C80.9737 29.3312 79.7036 29.4225 78.3849 29.5767C78.3849 32.457 78.3849 35.3756 78.3849 38.3293C72.8348 38.3293 67.339 38.3293 61.7854 38.3293C61.7854 36.0973 61.7854 33.8671 61.7854 31.6506C54.1005 39.5443 45.2666 41.2015 35.5413 36.0285C29.3901 32.7566 25.2123 25.8681 26.2536 16.7046C25.8107 16.7046 25.3719 16.7046 24.8619 16.7046C24.8619 18.7677 24.8619 20.835 24.8619 22.9664ZM30.4059 16.598C29.8373 20.1124 30.1691 23.5235 31.9074 26.6716C34.545 31.4484 38.6581 34.1639 44.1334 34.7269C47.4077 35.0635 50.6249 34.697 53.5451 33.0818C58.4647 30.3608 61.3335 26.2483 61.7118 20.6071C62.0996 14.8252 59.9342 10.163 55.1648 6.78414C51.3034 4.04862 46.9477 3.53672 42.3853 4.37724C36.4137 5.47736 31.3667 10.6196 30.4059 16.598ZM89.9214 14.0719C89.6819 11.1219 88.5114 8.624 86.1621 6.75342C84.3476 5.30864 82.1788 4.68374 79.902 4.63596C75.3272 4.53996 70.7496 4.57224 66.1731 4.55422C66.0695 4.55381 65.9657 4.58497 65.8517 4.60302C65.8517 14.5116 65.8517 24.3978 65.8517 34.2981C68.6744 34.2981 71.4633 34.2981 74.3313 34.2981C74.3313 31.334 74.3313 28.4197 74.3313 25.4703C75.2291 25.4703 76.0495 25.5051 76.8658 25.4629C78.436 25.3816 80.0208 25.365 81.5691 25.127C84.6647 24.6511 87.1573 23.1743 88.724 20.3961C89.8125 18.4659 90.0654 16.3648 89.9214 14.0719ZM4.02402 8.91545C4.02402 10.1276 4.02402 11.3398 4.02402 12.6239C6.81195 12.6239 9.52 12.6239 12.279 12.6239C12.279 19.8941 12.279 27.0907 12.279 34.3022C15.1463 34.3022 17.9606 34.3022 20.8493 34.3022C20.8493 27.0446 20.8493 19.8334 20.8493 12.5756C23.5931 12.5756 26.2626 12.5756 28.9581 12.5756C28.9581 9.89017 28.9581 7.25209 28.9581 4.592C20.6443 4.592 12.3635 4.592 4.02402 4.592C4.02402 6.01735 4.02402 7.40224 4.02402 8.91545Z" fill="#010101"/>
<path d="M126.461 28.5951C124.471 34.4814 120.259 37.6934 114.234 38.6038C108.562 39.4611 103.269 38.211 98.3356 35.37C97.2952 34.7708 96.2617 34.16 95.1987 33.5392C96.2664 31.1137 97.322 28.7134 98.3799 26.314C98.8361 25.2795 99.2815 24.2397 99.7655 23.218C99.9141 22.9041 99.8759 22.7037 99.6151 22.5067C99.53 22.4425 99.4623 22.3561 99.3845 22.2819C98.0254 20.9848 98.0602 20.9885 98.2545 19.1656C98.6099 15.8295 98.92 12.4886 99.2484 9.14956C99.5285 6.30233 99.8076 3.45502 100.091 0.565091C108.355 0.565091 116.594 0.565091 124.876 0.565091C124.876 5.79522 124.876 11.042 124.876 16.3221C124.671 16.3448 124.463 16.3679 124.165 16.4009C127.022 20.092 127.58 24.1688 126.461 28.5951ZM114.461 24.9888C114.203 26.1409 113.371 26.7008 112.298 26.9332C110.549 27.3119 108.81 27.1309 107.121 26.6129C105.837 26.2188 104.589 25.707 103.301 25.2389C102.336 27.4302 101.359 29.6476 100.388 31.8527C104.076 34.2281 109.579 35.312 113.863 34.6164C119.084 33.7687 122.654 29.9528 122.903 25.4179C123.067 22.4342 122.261 19.8488 119.849 17.8867C116.966 15.5413 113.677 15.0222 110.107 15.713C109.974 15.7388 109.835 15.7354 109.665 15.7481C109.787 14.585 109.903 13.4846 110.028 12.3039C113.645 12.3039 117.234 12.3039 120.815 12.3039C120.815 9.68548 120.815 7.15141 120.815 4.58439C115.127 4.58439 109.477 4.58439 103.794 4.58439C103.59 6.62244 103.385 8.64038 103.186 10.6588C102.911 13.4444 102.635 16.2299 102.374 19.0168C102.354 19.2309 102.368 19.533 102.499 19.6629C103.914 21.0687 105.357 22.4482 106.788 23.8318C107.171 23.5966 107.505 23.3608 107.865 23.1759C109.542 22.3153 111.28 21.9552 113.086 22.7382C114 23.1345 114.593 23.8059 114.461 24.9888Z" fill="#020101"/>
<path d="M30.4134 16.5426C31.3667 10.6196 36.4137 5.47736 42.3853 4.37724C46.9477 3.53672 51.3034 4.04862 55.1648 6.78414C59.9342 10.163 62.0996 14.8252 61.7118 20.6071C61.3335 26.2483 58.4647 30.3608 53.5451 33.0818C50.6249 34.697 47.4077 35.0635 44.1334 34.7269C38.6581 34.1639 34.545 31.4484 31.9074 26.6716C30.1691 23.5235 29.8373 20.1124 30.4134 16.5426ZM50.7025 14.1187C48.6663 12.3342 46.3158 11.9031 43.762 12.6697C40.6025 13.6182 38.7335 16.5184 38.9937 20.1018C39.3778 25.3925 45.0384 28.0969 49.4559 25.6277C53.6231 23.2984 54.2183 17.6676 50.7025 14.1187Z" fill="#F1DE35"/>
<path d="M89.924 14.1335C90.0654 16.3648 89.8125 18.4659 88.724 20.3961C87.1573 23.1743 84.6647 24.6511 81.5691 25.127C80.0208 25.365 78.436 25.3816 76.8658 25.4629C76.0495 25.5051 75.2291 25.4703 74.3313 25.4703C74.3313 28.4197 74.3313 31.334 74.3313 34.2981C71.4633 34.2981 68.6744 34.2981 65.8517 34.2981C65.8517 24.3978 65.8517 14.5116 65.8517 4.60302C65.9657 4.58497 66.0695 4.55381 66.1731 4.55422C70.7496 4.57224 75.3272 4.53996 79.902 4.63596C82.1788 4.68374 84.3476 5.30864 86.1621 6.75342C88.5114 8.624 89.6819 11.1219 89.924 14.1335ZM75.5969 17.971C76.5249 17.9686 77.4537 17.9887 78.3808 17.9589C79.9604 17.9079 81.1348 16.8571 81.2339 15.444C81.3528 13.7493 80.4195 12.4399 78.7446 12.2762C77.2976 12.1347 75.8254 12.2468 74.3396 12.2468C74.3396 14.1484 74.3396 16.0352 74.3396 17.971C74.7413 17.971 75.1046 17.971 75.5969 17.971Z" fill="#F0DD35"/>
<path d="M4.02401 8.85129C4.02402 7.40224 4.02402 6.01735 4.02402 4.592C12.3635 4.592 20.6443 4.592 28.9581 4.592C28.9581 7.25209 28.9581 9.89017 28.9581 12.5756C26.2626 12.5756 23.5931 12.5756 20.8493 12.5756C20.8493 19.8334 20.8493 27.0446 20.8493 34.3022C17.9606 34.3022 15.1463 34.3022 12.279 34.3022C12.279 27.0907 12.279 19.8941 12.279 12.6239C9.52 12.6239 6.81195 12.6239 4.02402 12.6239C4.02402 11.3398 4.02401 10.1276 4.02401 8.85129Z" fill="#F0DD35"/>
<path d="M114.471 24.9389C114.593 23.8059 114 23.1345 113.086 22.7382C111.28 21.9552 109.542 22.3153 107.865 23.1759C107.505 23.3608 107.171 23.5966 106.788 23.8318C105.357 22.4482 103.914 21.0687 102.499 19.6629C102.368 19.533 102.354 19.2309 102.374 19.0168C102.635 16.2299 102.911 13.4444 103.186 10.6588C103.385 8.64038 103.59 6.62244 103.794 4.58439C109.477 4.58439 115.127 4.58439 120.815 4.58439C120.815 7.15141 120.815 9.68548 120.815 12.3039C117.234 12.3039 113.645 12.3039 110.028 12.3039C109.903 13.4846 109.787 14.585 109.665 15.7481C109.835 15.7354 109.974 15.7388 110.107 15.713C113.677 15.0222 116.966 15.5413 119.849 17.8867C122.261 19.8488 123.067 22.4342 122.903 25.4179C122.654 29.9528 119.084 33.7687 113.863 34.6164C109.579 35.312 104.076 34.2281 100.388 31.8527C101.359 29.6476 102.336 27.4302 103.301 25.2389C104.589 25.707 105.837 26.2188 107.121 26.6129C108.81 27.1309 110.549 27.3119 112.298 26.9332C113.371 26.7008 114.202 26.1409 114.471 24.9389Z" fill="#F0DE35"/>
<path d="M50.7367 14.1489C54.2183 17.6676 53.6231 23.2984 49.4559 25.6277C45.0384 28.0969 39.3778 25.3925 38.9937 20.1018C38.7335 16.5184 40.6025 13.6182 43.762 12.6697C46.3158 11.9031 48.6663 12.3342 50.7367 14.1489ZM48.8721 19.8759C48.8711 19.621 48.8894 19.3643 48.8658 19.1115C48.7082 17.4223 47.5977 16.3656 45.9848 16.3588C44.3525 16.3518 43.187 17.4419 43.0282 19.1241C42.8707 20.7936 43.9441 22.2737 45.4414 22.4514C47.2992 22.672 48.615 21.7211 48.8721 19.8759Z" fill="#020201"/>
<path d="M75.5324 17.971C75.1046 17.971 74.7413 17.971 74.3396 17.971C74.3396 16.0352 74.3396 14.1484 74.3396 12.2468C75.8254 12.2468 77.2976 12.1347 78.7446 12.2762C80.4195 12.4399 81.3528 13.7493 81.2339 15.444C81.1348 16.8571 79.9604 17.9079 78.3808 17.9589C77.4537 17.9887 76.5249 17.9686 75.5324 17.971Z" fill="#010100"/>
<path d="M48.8656 19.9288C48.615 21.7211 47.2992 22.672 45.4414 22.4514C43.9441 22.2737 42.8707 20.7936 43.0282 19.1241C43.187 17.4419 44.3525 16.3518 45.9848 16.3588C47.5977 16.3656 48.7082 17.4223 48.8658 19.1115C48.8894 19.3643 48.8711 19.621 48.8656 19.9288Z" fill="#DFDFDF"/>
</svg>
